<?xml version="1.0"?>
<svg xmlns="http://www.w3.org/2000/svg" xmlns:xlink="http://www.w3.org/1999/xlink" data-noselect="" viewBox="0 0 350 100" width="700" height="200" preserveAspectRatio="none" version="1.1"><defs/> <g id="background" data-noselect=""><!----> <!----></g> <g id="shape_ppdnAIP4lr" transform="translate(30.916730316170543,28.618124632340905) rotate(0,28.36820961825964,24.113315776334378) scale(1,1)" filter="" style="cursor: move; opacity: 1;"><g><svg xmlns="http://www.w3.org/2000/svg" xmlns:xlink="http://www.w3.org/1999/xlink" version="1.1" id="&#x56FE;&#x5C42;_1" x="0px" y="0px" width="56.73641923651928" height="48.226631552668756" viewBox="1.7000000476837158 17.399999618530273 196.60000610351562 165.20001220703125" style="enable-background:new 0 0 200 200;" xml:space="preserve" class="style-removed" preserveAspectRatio="none" data-parent="shape_ppdnAIP4lr">

<g>
	<polygon points="132,136.3 178.3,136.3 170.5,182.6 124.2,182.6  " fill="#00bcf2" stroke-width="0"/>
	<polygon points="29.5,17.4 75.8,17.4 68,63.7 21.7,63.7  " fill="#00bcf2" stroke-width="0"/>
	<polygon points="90.7,17.4 198.3,17.4 190.5,63.7 82.9,63.7  " fill="#2B2B2B" stroke-width="0"/>
	<polygon points="9.5,136.3 117.1,136.3 109.3,182.6 1.7,182.6  " fill="#00bcf2" stroke-width="0"/>
	<polygon points="152,17.4 198.3,17.4 180.5,123.2 134.2,123.2  " fill="#2B2B2B" stroke-width="0"/>
	<polygon points="19.5,76.8 65.8,76.8 48,182.6 1.7,182.6  " fill="#00bcf2" stroke-width="0"/>
	<polygon points="80.7,76.8 127.1,76.8 119.3,123.2 72.9,123.2  " fill="#2B2B2B" stroke-width="0"/>
</g>
</svg></g></g><g id="shape_RhBfCBGfQE" transform="translate(18.893149552689806,-224.30855959132475) rotate(0,188.82771753534107,277.04) scale(1,1)" filter="" style="cursor: move; opacity: 1;"><g><svg xmlns="http://www.w3.org/2000/svg" xmlns:xlink="http://www.w3.org/1999/xlink" version="1.1" width="529.1754350706822" height="554.08" viewBox="0 0 529.1754350706822 554.08" data-parent="shape_RhBfCBGfQE"><g data-width="225.99208" transform="translate(75.76, 0)"><path d="M7.88-4.55L7.88-4.55Q6.82-4.55 5.91-4.92Q5.00-5.30 4.36-5.99Q3.71-6.67 3.48-7.61Q3.26-8.56 3.56-9.62L3.56-9.62L8.64-47.43L54.47-47.43L53.71-40.15L21.74-40.15L18.11-11.82L46.44-11.82L50.08-14.70L48.64-4.55L7.88-4.55Z" transform="translate(0 303.04) " fill="rgb(43, 43, 43)" stroke="rgb(43, 43, 43)" stroke-width="0.126" data-glyph-w="57.50184000000001" data-glyph-h="98.48800000000001" data-glyph-ascender="75.76" data-glyph-descender="-22.728"/><path d="M6.29-47.43L23.03-47.43L17.96-11.82L35.38-11.82L40.53-45.30L37.58-47.43L55.08-47.43L49.24-4.55L7.80-4.55Q5.61-4.55 4.51-5.99Q3.41-7.42 3.41-9.62L3.41-9.62L8.49-45.30L6.29-47.43Z" transform="translate(57.50184000000001 303.04) " fill="rgb(43, 43, 43)" stroke="rgb(43, 43, 43)" stroke-width="0.126" data-glyph-w="58.486720000000005" data-glyph-h="98.48800000000001" data-glyph-ascender="75.76" data-glyph-descender="-22.728"/><path d="M6.29-47.43L55.08-47.43L52.88-30.00L48.49-27.12L52.12-24.17L49.93-9.62Q49.40-7.42 47.88-5.99Q46.37-4.55 44.17-4.55L44.17-4.55L3.41-4.55L8.49-44.55L6.29-47.43ZM39.77-40.15L22.35-40.15L21.59-30.76L38.33-30.76L39.77-40.15ZM37.58-23.49L20.15-23.49L18.71-11.82L36.14-11.82L37.58-23.49Z" transform="translate(115.98856 303.04) " fill="rgb(43, 43, 43)" stroke="rgb(43, 43, 43)" stroke-width="0.126" data-glyph-w="58.486720000000005" data-glyph-h="98.48800000000001" data-glyph-ascender="75.76" data-glyph-descender="-22.728"/><path d="M7.05-47.43L48.49-47.43L47.80-40.15L23.79-40.15L22.35-30.76L44.85-30.76L44.17-23.49L20.83-23.49L19.39-11.82L44.85-11.82L44.17-4.55L3.41-4.55L9.24-44.55L7.05-47.43Z" transform="translate(174.47528 303.04) " fill="rgb(43, 43, 43)" stroke="rgb(43, 43, 43)" stroke-width="0.126" data-glyph-w="51.5168" data-glyph-h="98.48800000000001" data-glyph-ascender="75.76" data-glyph-descender="-22.728"/></g></svg></g></g>  <!----></svg>
