<?xml version="1.0" standalone="no"?><!DOCTYPE svg PUBLIC "-//W3C//DTD SVG 1.1//EN" "http://www.w3.org/Graphics/SVG/1.1/DTD/svg11.dtd"><svg t="1616921575703" class="icon" viewBox="0 0 1024 1024" version="1.1" xmlns="http://www.w3.org/2000/svg" p-id="20228" xmlns:xlink="http://www.w3.org/1999/xlink" width="200" height="200"><defs><style type="text/css"></style></defs><path d="M555.01572104 202.89972198c1.72385417-1.72385417 53.58938627-54.93849056 82.74501189-58.01144902 29.68027566-3.2978082 88.7410267 13.19123374 88.74102671 13.19123376s69.92852902 16.26419122 73.0014865 29.08067505c3.29780818 12.7415323-50.06672833 63.40786223-50.06672738 63.40786126s-51.71563195 50.96613023-74.87524179 57.48679701c-23.08465929 6.44571623-92.11378544-10.867777-92.11378545-10.86777701s-62.4335098-13.11628317-74.95019236-26.5323686c-11.99203058-13.34113487 45.71961617-65.95616869 47.51842188-67.75497245z" fill="#d5e000" p-id="20229"></path><path d="M318.62281675 491.90766009c-8.99402368 9.59362427 12.5166816 79.82195358 12.51668159 79.82195359s20.31150211 69.92852902 37.17529589 86.79232278c17.01369391 17.01369391 85.5181681 35.60134088 85.5181681 35.60134089s61.00945592 19.18724855 78.3979007 13.64093421c17.23854365-5.54631436-7.34511909-79.747004-8.01967123-82.22035992-0.59960157-2.24850618-19.93675028-74.05078951-43.77091129-91.13943301-24.43376258-17.38844478-84.01916464-32.00373141-84.01916464-32.00373142s-68.80427546-20.0866514-77.79829912-10.49302712z" fill="#d4237a" p-id="20230"></path><path d="M339.00926942 433.89621207C351.45100143 447.38724609 413.88451025 460.35362912 413.88451025 460.35362912s68.95417659 17.23854365 92.11378642 10.86777799c23.08465929-6.44571623 74.87524082-57.33689686 74.87524083-57.33689687s53.21463638-50.66632895 50.06672835-63.40786223c-3.14790804-12.74153329-73.07643609-29.15562464-73.07643707-29.15562367s-59.13570063-16.26419121-88.74102671-13.19123373c-29.23057523 3.14790804-81.09610732 56.36254442-82.89491301 58.16134818-1.87375432 1.57395401-59.51045246 54.41383953-47.21861964 67.60507328z" fill="#d4237a" p-id="20231"></path><path d="M772.29632733 582.37254095c-6.37076664 23.15960887 10.94272757 92.18873601 10.94272759 92.18873603s13.04133359 62.50845937 26.53236764 74.95019138c13.19123374 12.14193171 65.88121813-45.34486529 67.68002285-47.14367002 1.72385417-1.72385417 54.93849056-53.43948708 58.16134916-82.89491207 3.14790804-29.68027663-13.26618429-88.81597726-13.26618431-88.81597726s-16.33914179-70.00347959-29.08067506-73.0014865c-12.81648287-3.22285762-63.48281279 49.99177778-63.48281085 49.99177779s-50.89117966 51.79058252-57.48679702 74.72534065z" fill="#d81e06" p-id="20232"></path><path d="M715.70893124 554.86582089c3.07295845-29.75522623-13.19123373-88.89092782-13.19123276-88.89092685s-16.33914178-69.85357846-29.23057522-73.00148748c-12.81648287-3.07295846-63.48281279 49.99177778-63.48281182 49.99177875s-50.81623007 51.8655321-57.33689687 74.87524082c-6.44571623 23.08465929 10.79282742 92.03883586 10.79282743 92.03883587s13.19123373 62.50846036 26.53236763 74.9501914c13.26618333 12.2168813 65.95616869-45.41981586 67.60507329-47.21862159 1.94870489-1.64890458 55.16334128-53.51443667 58.31124832-82.74501092z" fill="#d4237a" p-id="20233"></path><path d="M715.85883236 349.05259514c-6.52066679 23.00970873 10.79282742 92.03883586 10.79282841 92.03883487s13.11628317 62.4335098 26.53236762 74.95019138c13.11628416 12.2168813 65.88121813-45.34486529 67.68002286-47.14367003 1.72385417-1.72385417 54.86353999-53.66433684 58.01144704-82.74501191 3.22285764-29.75522623-13.26618429-88.81597726-13.26618331-88.81597628s-16.33914179-70.00347959-29.08067506-73.15138762c-12.81648287-3.22285762-63.40786223 50.06672833-63.40786127 50.06672737s-50.74127951 51.64068236-57.26194629 74.80029222z" fill="#53d200" p-id="20234"></path><path d="M272.45349818 414.70896254c23.15960986-6.5206668 74.95019139-57.41184743 74.95019237-57.41184645s53.21463638-50.66632895 50.14167792-63.48281181c-3.29780818-12.89143343-73.15138666-29.23057521-73.15138665-29.23057522s-59.06075006-16.33914178-88.74102671-13.19123374C206.34743031 254.61535293 154.48189725 307.68008917 152.75804307 309.40394336c-1.8737553 1.72385417-59.3605523 54.56373969-47.21862061 67.75497341 12.59163216 13.49103502 74.95019138 26.53236763 74.9501914 26.53236764s69.02912617 17.46339437 91.96388432 11.01767813z" fill="#ff6d00" p-id="20235"></path><path d="M591.5164638 850.69422707c-0.59960157-2.24850618-19.86180068-74.1257391-43.84586184-91.06448246-24.28386147-17.38844478-83.86926448-32.00373237-83.8692645-32.00373237s-68.95417658-20.08665139-78.02314886-10.56797769c-8.91907311 9.66857483 12.59163216 79.89690415 12.59163313 79.89690513s20.31150211 69.92852902 37.10034435 86.71737125c17.01369391 17.01369391 85.66806923 35.60134088 85.66806824 35.60134186s61.00945592 19.18724855 78.32295014 13.56598362c17.38844479-5.39641322-7.04531879-79.747004-7.94472066-82.14540934z" fill="#1296db" p-id="20236"></path><path d="M274.40220406 213.99234872c12.44173201 13.49103404 74.95019138 26.53236763 74.95019235 26.5323686s68.87922602 17.31349422 92.11378448 10.867778c23.08465929-6.44571623 74.95019139-57.41184743 74.95019139-57.41184742s53.13968581-50.59137838 49.99177777-63.33291167c-3.22285861-12.96638301-73.15138666-29.23057521-73.15138666-29.23057521s-59.13570062-16.41409234-88.74102767-13.19123276C375.21021188 91.44878686 323.26972923 144.58847267 321.54587505 146.31232684c-1.79880473 1.6489036-59.43550189 54.4887901-47.14367099 67.68002188z" fill="#00b7b7" p-id="20237"></path><path d="M714.20992875 871.15562932c1.79880473-1.6489036 54.86354096-53.51443668 58.08639762-82.81996247 3.22285764-29.75522623-13.26618429-88.81597726-13.26618332-88.81597627s-16.26419121-69.77862789-29.08067508-73.00148651c-12.81648287-3.07295846-63.55776238 50.06672737-63.55776238 50.06672738s-50.81623007 51.8655321-57.41184644 74.95019236c-6.37076566 23.00970872 10.79282742 92.03883586 10.79282839 92.03883488s13.11628317 62.4335098 26.60731723 75.02514098c13.41608445 12.06698017 66.18101941-45.64466657 67.82992398-47.44347035z" fill="#1296db" p-id="20238"></path><path d="M301.08447279 642.70744571c17.0886435-5.54631338-7.34511909-79.747004-8.09462178-82.29531047-0.59960157-2.24850618-19.93675028-74.05078951-43.77091129-91.13943302-24.35881203-17.31349423-83.86926448-32.00373237-83.8692645-32.00373239s-69.02912616-20.01170181-78.02314885-10.41807655c-8.99402368 9.59362427 12.5166816 79.82195358 12.5166816 79.82195359s20.23655155 69.85357846 37.17529491 86.79232181 85.5181681 35.60134088 85.51816907 35.60134186 61.00945592 19.18724855 78.54780084 13.64093517z" fill="#ff6d00" p-id="20239"></path><path d="M360.37007357 785.63746123c-0.59960157-2.24850618-19.86180068-73.97583992-43.84586186-91.06448244-24.43376258-17.38844478-83.94421408-32.07868197-83.94421504-32.07868297S163.62582106 642.5575446 154.55684781 652.22612039c-8.99402368 9.59362427 12.5166816 79.82195358 12.51668159 79.82195359s20.31150211 69.7786279 37.1752949 86.6424207c16.93874336 16.93874336 85.5181681 35.60134088 85.51816908 35.60134186s61.00945592 19.18724855 78.32295014 13.56598362c17.38844478-5.54631435-6.97036822-79.82195457-7.71986995-82.22035893z" fill="#5b00b9" p-id="20240"></path></svg>