<?xml version="1.0" standalone="no"?><!DOCTYPE svg PUBLIC "-//W3C//DTD SVG 1.1//EN" "http://www.w3.org/Graphics/SVG/1.1/DTD/svg11.dtd"><svg t="1621147119840" class="icon" viewBox="0 0 1024 1024" version="1.1" xmlns="http://www.w3.org/2000/svg" p-id="1852" xmlns:xlink="http://www.w3.org/1999/xlink" width="200" height="200"><defs><style type="text/css"></style></defs><path d="M860.16 263.314286h-190.171429a21.504 21.504 0 0 0 8.630858-17.261715 127.414857 127.414857 0 0 0-126.537143-126.829714H144.530286a127.122286 127.122286 0 0 0-126.683429 126.390857v190.171429a126.976 126.976 0 0 0 107.958857 125.659428l14.628572 71.972572a21.650286 21.650286 0 0 0 13.019428 15.652571 20.918857 20.918857 0 0 0 8.484572 1.755429 23.113143 23.113143 0 0 0 11.849143-3.364572l137.654857-87.771428a21.942857 21.942857 0 1 0-23.552-37.010286l-110.884572 70.802286-11.702857-57.051429a21.942857 21.942857 0 0 0-21.504-17.408 82.944 82.944 0 0 1-82.505143-83.090285v-190.171429a83.090286 83.090286 0 0 1 82.797715-82.651429h407.552a83.090286 83.090286 0 0 1 82.651428 82.944A22.089143 22.089143 0 0 0 643.657143 263.314286H476.306286a149.796571 149.796571 0 0 0-149.504 149.211428v232.301715A149.504 149.504 0 0 0 475.574857 794.331429h187.392l162.084572 104.448a21.942857 21.942857 0 0 0 33.353142-13.897143L877.714286 793.892571a150.381714 150.381714 0 0 0 131.657143-148.187428V413.403429A149.650286 149.650286 0 0 0 860.16 263.314286zM965.485714 645.705143a105.910857 105.910857 0 0 1-105.618285 105.325714 21.796571 21.796571 0 0 0-21.357715 17.554286l-15.945143 76.068571-140.726857-90.404571a22.528 22.528 0 0 0-11.849143-3.510857H476.16a105.472 105.472 0 0 1-105.325714-105.764572V412.818286a105.910857 105.910857 0 0 1 105.325714-105.618286h383.707429A105.764571 105.764571 0 0 1 965.485714 413.403429z" p-id="1853"></path><path d="M502.930286 515.218286m-28.233143 0a28.233143 28.233143 0 1 0 56.466286 0 28.233143 28.233143 0 1 0-56.466286 0Z" p-id="1854"></path><path d="M670.427429 515.218286m-28.233143 0a28.233143 28.233143 0 1 0 56.466285 0 28.233143 28.233143 0 1 0-56.466285 0Z" p-id="1855"></path><path d="M838.070857 515.218286m-28.233143 0a28.233143 28.233143 0 1 0 56.466286 0 28.233143 28.233143 0 1 0-56.466286 0Z" p-id="1856"></path></svg>