<?xml version="1.0" standalone="no"?><!DOCTYPE svg PUBLIC "-//W3C//DTD SVG 1.1//EN" "http://www.w3.org/Graphics/SVG/1.1/DTD/svg11.dtd"><svg t="1621145406056" class="icon" viewBox="0 0 1024 1024" version="1.1" xmlns="http://www.w3.org/2000/svg" p-id="39153" xmlns:xlink="http://www.w3.org/1999/xlink" width="200" height="200"><defs><style type="text/css"></style></defs><path d="M507.306667 224a224.853333 224.853333 0 0 0-216.746667 223.146667v189.013333a50.773333 50.773333 0 0 1-4.266667 19.626667v4.693333l-25.6 42.666667h503.893334l-30.293334-42.666667A47.36 47.36 0 0 1 725.333333 640v-183.466667a225.28 225.28 0 0 0-218.026666-232.533333z m0-42.666667A267.946667 267.946667 0 0 1 768 456.533333v177.493334a6.826667 6.826667 0 0 0 0 5.973333l32.853333 42.666667a42.666667 42.666667 0 0 1-32.853333 64.426666H256a42.666667 42.666667 0 0 1-35.84-21.76 42.666667 42.666667 0 0 1 0-42.666666l26.88-42.666667a8.106667 8.106667 0 0 0 0-3.413333V456.533333a267.52 267.52 0 0 1 260.266667-275.2z m103.253333 622.08a21.333333 21.333333 0 0 1-14.08 26.453334 276.48 276.48 0 0 1-162.133333 0 21.333333 21.333333 0 0 1-14.506667-26.453334 21.76 21.76 0 0 1 26.453333-14.506666 235.52 235.52 0 0 0 66.986667 9.813333 242.346667 242.346667 0 0 0 70.4-10.666667 21.76 21.76 0 0 1 26.88 15.36z" p-id="39154"></path></svg>